<svg xmlns:xlink="http://www.w3.org/1999/xlink" xmlns="http://www.w3.org/2000/svg" width="24" height="24" viewBox="0 0 24 24" fill="currentColor"><path fill-rule="evenodd" clip-rule="evenodd" d="M.933 12C.933 18.1 5.9 23.067 12 23.067c6.102 0 11.067-4.966 11.067-11.067S18.102.933 12 .933C5.9.933.933 5.9.933 12zM0 12c0 6.617 5.383 12 12 12s12-5.383 12-12S18.617 0 12 0 0 5.383 0 12z" fill="#776151"></path><path fill-rule="evenodd" clip-rule="evenodd" d="M12.246 19.929c-.594 0-1.24-.036-1.886-.124-.855-.018-1.554-.73-1.554-1.618v-6.791c0-.89.716-1.618 1.59-1.618h3.893c.873 0 1.589.729 1.589 1.618v6.79c0 .872-.699 1.6-1.554 1.619-.175.035-1.013.124-2.078.124zm-1.85-9.333a.808.808 0 00-.804.817v6.791c0 .445.35.818.803.818h.053c1.816.267 3.771 0 3.789 0h.052a.808.808 0 00.803-.817v-6.792a.808.808 0 00-.803-.817h-3.894z" fill="#776151"></path><path fill-rule="evenodd" clip-rule="evenodd" d="M14.83 10.596H9.592a.391.391 0 01-.384-.392V8.871c0-.213.175-.391.384-.391h5.238c.21 0 .384.178.384.391v1.333c.018.214-.157.392-.384.392zm-4.836-.8h4.452v-.534H9.994v.534z" fill="#776151"></path><path fill-rule="evenodd" clip-rule="evenodd" d="M14.167 9.262a.391.391 0 01-.384-.39V7.84h-.35a.374.374 0 01-.366-.284L12.21 4.87h-.174l-.716 2.667a.41.41 0 01-.384.302h-.297v1.031a.391.391 0 01-.384.391.391.391 0 01-.384-.39v-1.44c0-.214.174-.392.384-.392h.401l.699-2.596a.43.43 0 01.227-.266c.628-.267 1.1 0 1.152.018.087.053.157.124.175.23l.82 2.614h.454c.21 0 .384.178.384.391v1.44c-.017.213-.192.391-.401.391zM10.814 18.133a.391.391 0 01-.384-.39V11.84c0-.213.175-.391.384-.391.21 0 .384.178.384.391v5.902c.018.214-.157.391-.384.391z" fill="#776151"></path><path fill-rule="evenodd" clip-rule="evenodd" d="M11.984 7.84H10.92a.391.391 0 010-.782h1.065a.391.391 0 010 .782z" fill="#776151"></path></svg>