<svg xmlns:xlink="http://www.w3.org/1999/xlink" xmlns="http://www.w3.org/2000/svg" width="24" height="24" viewBox="0 0 24 24" fill="currentColor"><path fill-rule="evenodd" clip-rule="evenodd" d="M.933 12C.933 18.1 5.9 23.067 12 23.067c6.102 0 11.067-4.966 11.067-11.067S18.102.933 12 .933C5.9.933.933 5.9.933 12zM0 12c0 6.617 5.383 12 12 12s12-5.383 12-12S18.617 0 12 0 0 5.383 0 12z" fill="#776151"></path><path fill-rule="evenodd" clip-rule="evenodd" d="M16.539 10.336a1.728 1.728 0 01-1.724-1.72c0-.319.093-.612.244-.868l1.175 1.172a.435.435 0 00.61 0l1.174-1.172c.152.256.245.55.245.868a1.728 1.728 0 01-1.724 1.72zm-2.586 2.58l-.287.86h-2.873l-.288-.86h.057l1.724-3.44 1.667 3.44zm-.862 2.58h-1.724l-.287-.86h2.298l-.287.86zm-.727 2.176a.425.425 0 00-.27 0l-.44-1.316h1.15l-.44 1.316zm-4.445-7.336a1.728 1.728 0 01-1.724-1.72c0-.319.093-.612.245-.868L7.614 8.92a.435.435 0 00.61 0l1.175-1.172c.151.256.244.55.244.868a1.728 1.728 0 01-1.724 1.72zm8.62-2.328L15.32 6.792a.432.432 0 00-.609 0 2.572 2.572 0 00.874 4.22c-.15.555-.44 1.035-.888 1.375L13.09 9.092c0-.425-.535-.476-.862-.476-.327 0-.862.185-.862.475l-1.606 3.296c-.448-.34-.76-.82-.911-1.375a2.593 2.593 0 001.644-2.396c0-.71-.285-1.358-.753-1.824a.429.429 0 00-.606 0L7.918 8.008 6.7 6.792a.432.432 0 00-.61 0 2.57 2.57 0 00-.757 1.824 2.586 2.586 0 002.586 2.58c.037 0 .073-.004.11-.005a3.447 3.447 0 001.717 2.173l1.65 4.936-.765.762a.431.431 0 00.61.608l.77-.768c.07.018.143.034.218.034a.851.851 0 00.218-.034l.77.768a.431.431 0 00.61-.608l-.764-.762 1.649-4.936a3.447 3.447 0 001.718-2.173c.036.001.072.005.109.005a2.586 2.586 0 002.586-2.58c0-.71-.291-1.358-.758-1.824a.432.432 0 00-.61 0L16.54 8.008z" fill="#776151"></path></svg>