<svg xmlns:xlink="http://www.w3.org/1999/xlink" xmlns="http://www.w3.org/2000/svg" width="24" height="24" viewBox="0 0 24 24" fill="currentColor"><path fill-rule="evenodd" clip-rule="evenodd" d="M.933 12C.933 18.1 5.9 23.067 12 23.067c6.102 0 11.067-4.966 11.067-11.067S18.102.933 12 .933C5.9.933.933 5.9.933 12zM0 12c0 6.617 5.383 12 12 12s12-5.383 12-12S18.617 0 12 0 0 5.383 0 12z" fill="#776151"></path><path fill-rule="evenodd" clip-rule="evenodd" d="M11.999 7.514c-.065 0-.134.043-.194.123-.484.638-1.295 1.862-1.295 2.896 0 .498.195.955.58 1.36a1.243 1.243 0 001.818 0c.384-.405.579-.862.579-1.36 0-1.034-.811-2.258-1.295-2.896-.06-.08-.129-.123-.193-.123zm0 5.621a2.075 2.075 0 01-1.519-.657c-.538-.568-.81-1.222-.81-1.945 0-1.218.796-2.527 1.466-3.41.22-.29.534-.456.863-.456.328 0 .643.166.863.456.668.883 1.466 2.192 1.466 3.41 0 .723-.273 1.377-.811 1.945a2.075 2.075 0 01-1.518.657zM6.714 12.909a.206.206 0 00-.135.041c-.05.042-.075.12-.07.22.037.802.198 2.264.858 3.057.318.38.759.605 1.311.667.348.039.686-.063.95-.286.264-.223.421-.54.444-.891.036-.559-.107-1.035-.425-1.416-.66-.792-2.063-1.206-2.841-1.382a.42.42 0 00-.092-.01zm2.112 4.84c-.08 0-.16-.005-.24-.014-.775-.086-1.402-.41-1.864-.964-.778-.934-1.002-2.452-1.054-3.561-.017-.365.118-.696.37-.908.252-.213.6-.289.952-.209 1.077.243 2.523.73 3.302 1.664.46.553.67 1.23.62 2.014a2.1 2.1 0 01-.744 1.486c-.38.321-.85.492-1.342.492zM17.282 12.953a.417.417 0 00-.09.01c-.778.177-2.182.59-2.842 1.382-.318.381-.46.857-.425 1.416.022.352.18.668.444.891.265.223.603.325.95.286.552-.062.993-.286 1.311-.667.66-.792.821-2.255.858-3.057.005-.099-.02-.177-.07-.22a.206.206 0 00-.136-.041zm-2.111 4.84a2.1 2.1 0 01-2.086-1.978c-.05-.783.16-1.461.62-2.014.779-.934 2.225-1.42 3.302-1.664.353-.08.7-.004.952.209s.387.544.37.908c-.052 1.11-.277 2.628-1.055 3.561-.46.553-1.088.878-1.863.965-.08.009-.16.013-.24.013z" fill="#776151"></path></svg>